Coordinates
version=1
nRows=16
nColumns=40
inDegrees=yes

Units are S.I. units (second, meters, Newtons, ...)
Angles are in degrees.

endheader
time	pelvis_tilt	pelvis_list	pelvis_rotation	pelvis_tx	pelvis_ty	pelvis_tz	hip_flexion_r	hip_adduction_r	hip_rotation_r	knee_angle_r	knee_angle_r_beta	ankle_angle_r	subtalar_angle_r	mtp_angle_r	hip_flexion_l	hip_adduction_l	hip_rotation_l	knee_angle_l	knee_angle_l_beta	ankle_angle_l	subtalar_angle_l	mtp_angle_l	lumbar_extension	lumbar_bending	lumbar_rotation	arm_flex_r	arm_add_r	arm_rot_r	elbow_flex_r	pro_sup_r	wrist_flex_r	wrist_dev_r	arm_flex_l	arm_add_l	arm_rot_l	elbow_flex_l	pro_sup_l	wrist_flex_l	wrist_dev_l
     17.80500000	     -4.77567602	     -4.64843974	      4.77678607	      0.78518127	      0.92071272	      0.45029387	     -0.59091942	      0.54580484	    -16.97438349	     17.95205599	     17.95205599	     17.20245372	     -2.88970678	     -2.62565959	     27.09310483	     -4.13097139	      0.90413073	     26.26511533	     26.26511533	      7.19244852	    -14.86914495	      4.23416238	     -7.42168193	      4.26112944	      3.80920733	     36.42068541	    -13.50076047	     -2.10429280	     98.02042861	     44.26302923	      0.00000000	      0.00000000	     -3.85660598	     -8.51749950	     -0.42285790	     31.84207584	     45.18506116	      0.00000000	      0.00000000
     17.81857143	     -4.78274374	     -4.54138843	      4.41324337	      0.78551140	      0.92164923	      0.44800612	     -0.02926063	     -0.07699072	    -16.63443314	     19.87311997	     19.87311997	     16.90063001	     -3.40045592	     -2.99564725	     26.46287545	     -4.02658160	      0.57235592	     26.20118203	     26.20118203	      7.71441492	    -14.87982939	      4.21994017	     -7.48545045	      4.17413550	      4.08882047	     35.00698962	    -13.55617309	     -1.96697392	     96.45481940	     44.31346277	      0.00000000	      0.00000000	     -2.91923059	     -8.58364362	     -0.75095456	     32.43514475	     45.25184752	      0.00000000	      0.00000000
     17.83214286	     -4.81063362	     -4.50292970	      4.06536960	      0.78571138	      0.92253888	      0.44580304	      0.74379378	     -0.63425526	    -16.19623342	     22.07910939	     22.07910939	     16.41259847	     -4.19882464	     -3.55047249	     25.84554450	     -3.97790894	      0.30074853	     26.08077593	     26.08077593	      8.18555453	    -14.87373352	      4.24423905	     -7.50192053	      4.11808246	      4.28993877	     33.64582407	    -13.42641616	     -1.99778549	     94.33344711	     44.38763527	      0.00000000	      0.00000000	     -2.01484270	     -8.65767858	     -1.11336175	     33.11726871	     45.32190867	      0.00000000	      0.00000000
     17.84571429	     -4.83871867	     -4.45180461	      3.71533632	      0.78579648	      0.92339450	      0.44353971	      1.60955358	     -1.15494702	    -15.52456279	     24.34019691	     24.34019691	     15.29375829	     -5.79206818	     -5.38385051	     25.23668064	     -3.92152484	     -0.07225665	     25.96773143	     25.96773143	      8.72416072	    -14.81223592	      4.56841182	     -7.45892669	      4.16280073	      3.66885911	     33.09670550	    -12.28159310	     -2.07934965	     89.99625994	     44.56879927	      0.00000000	      0.00000000	     -1.73727262	     -8.76516565	     -2.41315820	     34.44038851	     45.52393365	      0.00000000	      0.00000000
     17.85928571	     -4.82131216	     -4.30580717	      3.34860235	      0.78581640	      0.92424179	      0.44127170	      2.69497129	     -1.90432642	    -15.07441729	     27.16190965	     27.16190965	     14.57818377	     -6.79053877	     -6.03743652	     24.50621290	     -3.78490891	     -0.54992431	     25.72556721	     25.72556721	      9.08368682	    -14.66692323	      4.46820881	     -7.57655655	      4.07718961	      3.94866459	     31.47214731	    -12.42006666	     -1.90876133	     88.17809270	     44.62197730	      0.00000000	      0.00000000	     -0.73187658	     -8.88985403	     -2.66982779	     35.20093611	     45.57594776	      0.00000000	      0.00000000
     17.87285714	     -4.86995909	     -4.29601565	      3.02129023	      0.78560881	      0.92489165	      0.43912751	      3.91335075	     -2.36072889	    -14.28927015	     29.83716155	     29.83716155	     12.50136702	     -9.18379922	     -9.33377262	     23.91343938	     -3.76522164	     -0.90375349	     25.52925172	     25.52925172	      9.40361011	    -14.56326567	      4.30971369	     -7.52138225	      4.13607196	      3.22661624	     31.01983442	    -11.60428827	     -1.37063054	     83.38090081	     44.82735862	      0.00000000	      0.00000000	     -0.69411389	     -9.03294296	     -4.31246361	     37.22897041	     45.81874580	      0.00000000	      0.00000000
     17.88642857	     -4.87644212	     -4.21201082	      2.67541086	      0.78533135	      0.92554722	      0.43702179	      5.34187659	     -2.93807188	    -13.53258935	     33.02727185	     33.02727185	     11.19459388	    -11.05689588	     -9.96782241	     23.23776151	     -3.67921517	     -1.33541003	     25.27134032	     25.27134032	      9.70629685	    -14.40035885	      4.11347107	     -7.56830255	      4.13547779	      3.25650102	     29.79826994	    -11.29212955	     -1.71262745	     79.95137993	     44.96392178	      0.00000000	      0.00000000	      0.18470744	     -9.27226566	     -4.38044838	     38.17383554	     45.85009861	      0.00000000	      0.00000000
     17.90000000	     -4.90936518	     -4.04921599	      2.34075780	      0.78484609	      0.92600116	      0.43485823	      6.99446236	     -3.65904031	    -12.90956105	     36.52161222	     36.52161222	      9.92010154	    -12.60199751	    -10.17367783	     22.59786402	     -3.48869230	     -1.78284309	     24.99905176	     24.99905176	     10.01383021	    -14.25845271	      3.97047075	     -7.65787055	      4.07468933	      3.53192056	     28.11608626	    -11.54682556	     -1.69151261	     77.68607322	     45.03444593	      0.00000000	      0.00000000	      1.27676959	     -9.46147868	     -4.44234783	     39.04851617	     45.87718695	      0.00000000	      0.00000000
     17.91357143	     -4.91503231	     -3.91662449	      2.02131413	      0.78426322	      0.92639641	      0.43282116	      8.70547948	     -4.25224892	    -12.19035794	     40.02502196	     40.02502196	      8.43807174	    -14.43131897	    -10.06168351	     21.97733042	     -3.33061960	     -2.19139255	     24.78915828	     24.78915828	     10.32383518	    -14.14386260	      3.78560500	     -7.73389530	      4.03654425	      3.74714504	     26.55901593	    -11.68727741	     -1.78902012	     74.78492111	     45.13006237	      0.00000000	      0.00000000	      2.38384251	     -9.67741394	     -4.42237056	     40.04626352	     45.89594367	      0.00000000	      0.00000000
     17.92714286	     -4.88702919	     -3.87592621	      1.73038968	      0.78354634	      0.92679835	      0.43093667	     10.44153792	     -4.64637294	    -11.43018744	     43.48920581	     43.48920581	      7.16253173	    -16.08005747	     -8.64807233	     21.35316932	     -3.27169618	     -2.55072620	     24.59771807	     24.59771807	     10.59584161	    -13.98535665	      3.34036484	     -7.77085864	      4.11418944	      3.05885040	     26.51318521	    -10.65530588	     -2.22117553	     68.22375879	     45.36764210	      0.00000000	      0.00000000	      2.67685754	    -10.33667470	     -3.88844484	     41.84023926	     45.86460150	      0.00000000	      0.00000000
     17.94071429	     -4.86634784	     -3.62877311	      1.45683960	      0.78271744	      0.92701681	      0.42895199	     12.23547476	     -5.37122059	    -10.92552782	     46.92346379	     46.92346379	      5.73681316	    -17.23140888	     -8.16765801	     20.73665268	     -2.96434277	     -2.92658249	     24.40721613	     24.40721613	     10.93327792	    -13.88950618	      3.18180356	     -7.98800094	      3.98685308	      3.18095250	     24.65383511	    -10.95817757	     -2.04738850	     66.36890914	     45.41579507	      0.00000000	      0.00000000	      3.89445330	    -10.62854965	     -4.00296508	     42.73262023	     45.89924754	      0.00000000	      0.00000000
     17.95428571	     -4.95293541	     -3.48557798	      1.12390814	      0.78170181	      0.92707486	      0.42719990	     14.21370269	     -5.89863176	    -10.33747002	     50.22274092	     50.22274092	      4.56638698	    -18.08744370	     -6.88536593	     20.22731017	     -2.77772938	     -3.29322928	     24.16509219	     24.16509219	     11.27016316	    -13.81230287	      2.99033778	     -8.02708746	      3.94505459	      3.63851052	     22.93627337	    -11.53878982	     -2.02185226	     63.38514251	     45.50853009	      0.00000000	      0.00000000	      5.10872385	    -10.76949577	     -4.01237200	     43.85645201	     45.92547554	      0.00000000	      0.00000000
     17.96785714	     -4.93252692	     -3.50668612	      0.88134785	      0.78062856	      0.92735540	      0.42570463	     16.23569172	     -6.00922340	     -9.59412928	     53.64504976	     53.64504976	      5.69919454	    -18.02200691	      1.10967881	     19.66015473	     -2.77798416	     -3.57533068	     23.98416910	     23.98416910	     11.45357404	    -13.71605882	      2.44554992	     -8.05683493	      4.10064001	      2.74300963	     23.52232181	    -10.62408920	     -2.04683533	     55.31462751	     45.77163332	      0.00000000	      0.00000000	      5.26292814	    -11.61967197	     -3.45901396	     45.93093050	     45.92117099	      0.00000000	      0.00000000
     17.98142857	     -4.99892037	     -3.36177956	      0.58888219	      0.77944404	      0.92752346	      0.42416282	     18.09501851	     -6.40495573	     -9.09952428	     56.22407102	     56.22407102	      4.81029126	    -18.47490358	      2.15140504	     19.14007984	     -2.59268877	     -3.93068028	     23.72238139	     23.72238139	     11.71706539	    -13.58381132	      2.30482796	     -8.22072005	      4.08184993	      3.27571037	     21.61041494	    -11.36716725	     -1.89020927	     52.76801383	     45.84079085	      0.00000000	      0.00000000	      6.64005309	    -11.67501144	     -3.67061971	     47.10348361	     45.97477058	      0.00000000	      0.00000000
     17.99500000	     -4.93457801	     -3.35753792	      0.34269609	      0.77835255	      0.92782240	      0.42291758	     19.84245807	     -6.49959838	     -8.61293601	     58.62196017	     58.62196017	      5.17291731	    -18.55235483	      6.38725071	     18.49292398	     -2.56824623	     -4.23122890	     23.48272193	     23.48272193	     12.02159966	    -13.42433476	      1.89291854	     -8.35129006	      4.19965850	      2.78378800	     21.29735064	    -11.02531059	     -1.70531788	     47.14300048	     46.00906948	      0.00000000	      0.00000000	      7.35326750	    -12.27223622	     -3.65776274	     48.20781435	     46.02336680	      0.00000000	      0.00000000
     18.00857143	     -4.90829316	     -3.33124640	      0.07596616	      0.77721786	      0.92817514	      0.42177367	     21.42491134	     -6.62968131	     -8.26194605	     60.30137559	     60.30137559	      4.64891880	    -18.69437561	      6.97816784	     17.85298956	     -2.51283414	     -4.51752570	     23.17864347	     23.17864347	     12.34534382	    -13.28303322	      1.74700673	     -8.59665554	      4.28462650	      3.16084517	     19.41697763	    -11.60316880	     -1.56609160	     44.72956426	     46.07241857	      0.00000000	      0.00000000	      8.63004138	    -12.39156887	     -3.95924599	     49.38142437	     46.08551666	      0.00000000	      0.00000000
